<svg width="1164" height="1010" viewBox="0 0 1164 1010" fill="none" xmlns="http://www.w3.org/2000/svg">
<g filter="url(#filter0_df)">
<path fill-rule="evenodd" clip-rule="evenodd" d="M580 154L546.084 218.315L168.676 934H236.507L580 282.63L923.493 934H991.324L613.916 218.315L580 154Z" fill="#1F1F1F"/>
<path fill-rule="evenodd" clip-rule="evenodd" d="M761.884 778.351C716.219 823.851 653.175 852 583.5 852C443.95 852 331 739.078 331 600C331 460.922 443.95 348 583.5 348C653.183 348 716.233 376.156 761.9 421.665L808.569 374.996C750.943 317.534 671.378 282 583.5 282C407.597 282 265 424.373 265 600C265 775.627 407.597 918 583.5 918C671.396 918 750.976 882.452 808.604 824.969L761.884 778.351Z" fill="#DF7313"/>
<path d="M745.5 600C745.5 691.403 671.403 765.5 580 765.5C488.597 765.5 414.5 691.403 414.5 600C414.5 508.597 488.597 434.5 580 434.5C671.403 434.5 745.5 508.597 745.5 600Z" stroke="#1F1F1F" stroke-width="44"/>
<path fill-rule="evenodd" clip-rule="evenodd" d="M568 717.5H591V482.5H568V513.821V538.141V661.859V686.179V717.5ZM560 684.69V659.759C535.01 651.399 517 627.803 517 600C517 572.197 535.01 548.601 560 540.241V515.31C521.592 524.345 493 558.834 493 600C493 641.166 521.592 675.655 560 684.69ZM667 600C667 641.523 637.911 676.251 599 684.919V660.084C624.508 652.026 643 628.172 643 600C643 571.828 624.508 547.974 599 539.916V515.081C637.911 523.749 667 558.477 667 600Z" fill="#DF7313"/>
</g>
<defs>
<filter id="filter0_df" x="0" y="0" width="1164" height="1010" filterUnits="userSpaceOnUse" color-interpolation-filters="sRGB">
<feFlood flood-opacity="0" result="BackgroundImageFix"/>
<feColorMatrix in="SourceAlpha" type="matrix" values="0 0 0 0 0 0 0 0 0 0 0 0 0 0 0 0 0 0 127 0"/>
<feOffset dx="4" dy="4"/>
<feGaussianBlur stdDeviation="2.5"/>
<feColorMatrix type="matrix" values="0 0 0 0 0 0 0 0 0 0 0 0 0 0 0 0 0 0 0.2 0"/>
<feBlend mode="normal" in2="BackgroundImageFix" result="effect1_dropShadow"/>
<feBlend mode="normal" in="SourceGraphic" in2="effect1_dropShadow" result="shape"/>
<feGaussianBlur stdDeviation="0.5" result="effect2_foregroundBlur"/>
</filter>
</defs>
</svg>
