<svg xmlns="http://www.w3.org/2000/svg" xmlns:xlink="http://www.w3.org/1999/xlink" version="1.1" x="0px" y="0px" viewBox="0 0 91 113.75" style="enable-background:new 0 0 91 91;" xml:space="preserve"><g><path d="M88.5,23.4c0-1.8-2.2-3.3-3.8-2.2c-2.6,1.9-5.3,3.7-8,5.4c0.1-2.4-0.2-4.8-0.7-7.2c-0.1-0.6-2.6-1-3.3-0.4   c-5.1,4.6-11.4,8.3-18.4,9c-7.8,0.8-15.1-2.1-21.2-6.8c-0.1-0.1-0.2-0.2-0.4-0.3c-2.2-3.6-1.4-7.4-1.9-11.5   c-0.2-1.5-1.7-2.2-2.9-1.2c-0.7,0.6-1.4,1.1-2.1,1.5c0-1.3-0.2-2.7-0.4-4c-0.2-1.5-2.6-2.1-3.6-0.9c-0.8,1-1.7,2-2.5,2.9   c-0.5-1.4-1.2-2.7-2-3.7c-0.7-0.7-1.8-0.8-2.6-0.3c-1.9,1-2.2,4.8-2.5,6.5c-0.5,2.8-1,6.8,0.1,9.7c-0.6,0.3-6.1,3.7-8.6,4.4   c-1.9,0.5-2.2,3.2-0.5,4.2c2.5,1.5,5,3,7.4,4.6c0,0.6,0.1,1.2,0.1,1.7c1.2,13.8,6.4,29.3,18.5,37.3c5.1,3.3,10.9,5.1,16.8,5.4   c-0.3,1.6-0.3,3.2-0.3,4.8c-2.9,0.3-5.6,0.9-7.8,2.3c-0.7,0.5-0.6,1.5,0.2,1.8c2.5,0.7,5.3,0.3,8,0.3c3,0,6,0,8.9,0.1   c2.9,0.2,2.9-4.5,0-4.6c-1.4,0-3.1-0.1-4.8-0.1c0.1-1.5,0-3.1-0.3-4.6c7-0.5,13.8-3,19.3-7.5C82.8,59.2,88.4,40,88.5,23.4z    M10.6,27.6c-0.5-0.3-1-0.6-1.5-1c0.7-0.5,1.3-1,1.8-1.5C10.7,25.9,10.6,26.7,10.6,27.6z M16.2,12.2c0-0.1,0-0.2,0.1-0.4   c0.2,0.4,0.3,0.8,0.5,1.1c0.5,1.2,2.6,1.4,3.4,0.4c0.7-0.8,1.3-1.6,2-2.4c0.2,0.8,0.5,1.5,0.8,2.3c0.3,0.7,1.4,1,2,0.5   c0.8-0.5,1.6-1,2.4-1.4c0,1.3-0.1,2.6,0,3.9c-0.9-0.6-1.8-1.1-2.8-1.5c-2.9-1-6.2-0.4-8.7,1.3C15.9,14.9,16,13.5,16.2,12.2z    M32.1,69c-5.3-3.2-9.2-8.1-11.8-13.7c-3-6.4-5.2-14.4-5.6-21.5c-0.2-3.2-0.2-6.7,0.6-9.8c1-3.6,4.6-6.3,8.3-4.5   c2.9,1.4,5.3,4.4,7.9,6.3c2.7,2,5.6,3.6,8.7,4.8c11.4,4.4,23.4,1.5,32.4-6c0,0.2-0.8,4.3-1.3,6.2c-0.6,1.9,1.7,3.8,3.5,2.7   c2.8-1.9,5.7-3.7,8.6-5.5c-0.9,12.7-4.6,26-13.4,35.4C60.2,73.6,44.4,76.5,32.1,69z"/><path d="M69.6,45c-2.8,1.3-5.7,2.1-8.7,2.6c0.8-0.8,1.6-1.7,2.3-2.7c2-2.6-2.5-5.2-4.4-2.6c-2.1,2.8-5,4.7-8.3,5.8   c-2.9,0.9-2.2,4.9,0.7,5.1c4.5,0.4,8.9,0,13.2-1c-3.5,3.8-8.2,6.5-13.5,7.1c-8.3,1-16.4-3.4-21.4-9.9c-1.3-1.7-3.8-0.3-2.8,1.7   C31,60,41.1,65.4,50.9,64.7c9.7-0.7,18.5-7.1,22.3-16C74.3,46.2,72.1,43.9,69.6,45z"/><path d="M21.8,23.5c-0.7,0-1.5,0.3-2,0.8c-0.5,0.6-0.8,1.2-0.8,2c-0.1,0.8,0.2,1.7,0.9,2.3c1.1,1,2.8,1,3.9,0   c0.6-0.6,0.9-1.5,0.9-2.3c-0.1-0.8-0.3-1.4-0.8-2C23.3,23.9,22.5,23.5,21.8,23.5z"/></g><text x="0" y="106" fill="#000000" font-size="5px" font-weight="bold" font-family="'Helvetica Neue', Helvetica, Arial-Unicode, Arial, Sans-serif">Created by BomSymbols</text><text x="0" y="111" fill="#000000" font-size="5px" font-weight="bold" font-family="'Helvetica Neue', Helvetica, Arial-Unicode, Arial, Sans-serif">from the Noun Project</text></svg>